<?xml version="1.0" encoding="utf-8"?>
<!-- Generator: Adobe Illustrator 24.1.1, SVG Export Plug-In . SVG Version: 6.00 Build 0)  -->
<svg version="1.1" id="Layer_1" xmlns="http://www.w3.org/2000/svg" xmlns:xlink="http://www.w3.org/1999/xlink" x="0px" y="0px"
	 viewBox="0 0 512 512" style="enable-background:new 0 0 512 512;" xml:space="preserve">
<g>
	<path d="M256,512C114.6,512,0,397.4,0,256S114.6,0,256,0s256,114.6,256,256S397.4,512,256,512z M256,460.8
		c113.1,0,204.8-91.7,204.8-204.8S369.1,51.2,256,51.2S51.2,142.9,51.2,256S142.9,460.8,256,460.8z M165.4,346.6
		c-10-10-10-26.3,0-36.4s26.3-10,36.4,0c30,30,78.6,30,108.5,0c10-10,26.3-10,36.4,0s10,26.3,0,36.4c-49.9,50-131,50.1-181,0.2
		L165.4,346.6z M179.2,230.4c-14.1,0-25.6-11.5-25.6-25.6s11.5-25.6,25.6-25.6s25.6,11.5,25.6,25.6S193.3,230.4,179.2,230.4z
		 M332.8,230.4c-14.1,0-25.6-11.5-25.6-25.6s11.5-25.6,25.6-25.6c14.1,0,25.6,11.5,25.6,25.6S346.9,230.4,332.8,230.4z"/>
</g>
</svg>
