<?xml version="1.0" encoding="utf-8"?>
<!-- Generator: Adobe Illustrator 27.7.0, SVG Export Plug-In . SVG Version: 6.00 Build 0)  -->
<svg version="1.1" id="Layer_1" xmlns="http://www.w3.org/2000/svg" xmlns:xlink="http://www.w3.org/1999/xlink" x="0px" y="0px"
	 viewBox="0 0 512 512" style="enable-background:new 0 0 512 512;" xml:space="preserve">
<g>
	<path d="M0,256c0.02,141.39,114.61,255.98,256,256c141.39-0.02,255.98-114.61,256-256C511.98,114.61,397.39,0.02,256,0
		C114.61,0.02,0.02,114.61,0,256c0,14.14,11.46,25.6,25.6,25.6s25.6-11.46,25.6-25.6c0.01-56.64,22.88-107.67,59.98-144.82
		C148.33,74.08,199.36,51.21,256,51.2c56.63,0.01,107.67,22.88,144.82,59.98c37.1,37.14,59.97,88.18,59.98,144.82
		c-0.01,56.63-22.88,107.67-59.98,144.82c-37.14,37.1-88.18,59.97-144.82,59.98c-56.64-0.01-107.67-22.88-144.82-59.98
		C74.08,363.67,51.21,312.64,51.2,256c0-14.14-11.46-25.6-25.6-25.6S0,241.86,0,256L0,256z"/>
	<path d="M338.29,341.76c-22.5-22.98-52.5-34.61-82.29-34.58c-29.01-0.03-58.27,11-80.62,32.91l-0.19,0.18l-1.29,1.29
		c-10,10-10,26.21,0,36.2c10,10,26.21,10,36.2,0l1.29-1.29l-18.1-18.1l17.92,18.29c12.52-12.25,28.54-18.26,44.79-18.29
		c16.68,0.03,33.12,6.37,45.72,19.21c9.89,10.1,26.1,10.26,36.2,0.37C348.02,368.07,348.18,351.86,338.29,341.76L338.29,341.76z"/>
	<path d="M181.9,174.15c-0.07,0.16-0.73,1.31-3.6,2.69c-2.76,1.34-7.3,2.39-11.9,2.36c-4.6,0.03-9.14-1.03-11.9-2.36
		c-2.87-1.38-3.54-2.52-3.6-2.69c-6.32-12.65-21.7-17.77-34.35-11.45c-12.65,6.32-17.77,21.7-11.45,34.35
		c6.33,12.64,16.87,21.09,27.6,26.11c10.84,5.06,22.3,7.21,33.7,7.24c11.4-0.03,22.86-2.17,33.7-7.24
		c10.73-5.02,21.26-13.48,27.6-26.11c6.32-12.65,1.2-28.02-11.45-34.35C203.6,156.38,188.23,161.51,181.9,174.15L181.9,174.15z"/>
	<path d="M361.1,174.15c-0.07,0.16-0.73,1.31-3.6,2.69c-2.76,1.34-7.3,2.39-11.9,2.36c-4.6,0.03-9.14-1.03-11.9-2.36
		c-2.87-1.38-3.54-2.52-3.6-2.69c-6.32-12.65-21.7-17.77-34.35-11.45c-12.65,6.32-17.77,21.7-11.45,34.35
		c6.33,12.64,16.87,21.09,27.6,26.11c10.84,5.06,22.3,7.21,33.7,7.24c11.4-0.03,22.86-2.17,33.7-7.24
		c10.73-5.02,21.26-13.48,27.6-26.11c6.32-12.65,1.2-28.02-11.45-34.35C382.8,156.38,367.43,161.51,361.1,174.15L361.1,174.15z"/>
</g>
</svg>
