<?xml version="1.0" encoding="utf-8"?>
<!-- Generator: Adobe Illustrator 28.0.0, SVG Export Plug-In . SVG Version: 6.00 Build 0)  -->
<svg version="1.1" id="Layer_1" xmlns="http://www.w3.org/2000/svg" xmlns:xlink="http://www.w3.org/1999/xlink" x="0px" y="0px"
	 viewBox="0 0 512 512" style="enable-background:new 0 0 512 512;" xml:space="preserve">
<g>
	<path d="M256,23.27v23.27c57.91,0.01,110.13,23.41,148.11,61.35c37.94,37.98,61.34,90.19,61.35,148.11
		c-0.01,57.91-23.41,110.13-61.35,148.11c-37.98,37.94-90.19,61.34-148.11,61.35c-57.91-0.01-110.13-23.41-148.11-61.35
		C69.95,366.13,46.56,313.91,46.55,256c0.01-57.91,23.41-110.13,61.35-148.11C145.87,69.95,198.09,46.56,256,46.55L256,23.27V0
		C114.61,0.02,0.02,114.61,0,256c0.02,141.39,114.61,255.98,256,256c141.39-0.02,255.98-114.61,256-256
		C511.98,114.61,397.39,0.02,256,0V23.27z"/>
	<path d="M186.18,187.35v-2.33c0-12.85-10.42-23.27-23.27-23.27c-12.85,0-23.27,10.42-23.27,23.27v2.33
		c0,12.85,10.42,23.27,23.27,23.27C175.76,210.62,186.18,200.2,186.18,187.35"/>
	<path d="M372.36,187.35v-2.33c0-12.85-10.42-23.27-23.27-23.27s-23.27,10.42-23.27,23.27v2.33c0,12.85,10.42,23.27,23.27,23.27
		S372.36,200.2,372.36,187.35"/>
	<path d="M371.17,341.73c-6.99-20.89-19.4-41.96-38.63-58.37C313.41,266.94,287.02,255.89,256,256
		c-31.02-0.11-57.41,10.94-76.54,27.36c-19.23,16.41-31.64,37.48-38.63,58.37c-4.06,12.19,2.53,25.37,14.72,29.44
		c12.19,4.06,25.37-2.53,29.44-14.72c4.65-14.02,13.08-27.86,24.63-37.63c11.66-9.76,25.99-16.16,46.38-16.27
		c20.39,0.11,34.73,6.51,46.38,16.27c11.55,9.77,19.98,23.61,24.63,37.63c4.06,12.19,17.24,18.78,29.44,14.72
		C368.64,367.1,375.23,353.93,371.17,341.73z"/>
</g>
</svg>
